<svg width="28" height="28" viewBox="0 0 28 28" fill="none" xmlns="http://www.w3.org/2000/svg">
<rect width="28" height="28" rx="2" fill="#FACC15"/>
<path d="M14.8567 5.66748C15.7946 5.66903 16.2698 5.674 16.6805 5.68622L16.8422 5.69151C17.0291 5.69815 17.2134 5.70648 17.4357 5.7169C18.3224 5.75787 18.9273 5.89815 19.4586 6.1044C20.0078 6.31621 20.4717 6.60231 20.9349 7.06551C21.3974 7.52871 21.6836 7.99398 21.8961 8.5419C22.1016 9.07246 22.2419 9.67801 22.2836 10.5648C22.2935 10.787 22.3015 10.9714 22.3081 11.1582L22.3133 11.32C22.3255 11.7306 22.3311 12.2059 22.3328 13.1438L22.3335 13.7651C22.3336 13.841 22.3336 13.9194 22.3336 14.0002L22.3335 14.2353L22.333 14.8567C22.3314 15.7945 22.3265 16.2699 22.3142 16.6805L22.3089 16.8422C22.3023 17.0291 22.294 17.2135 22.2836 17.4356C22.2426 18.3225 22.1016 18.9273 21.8961 19.4585C21.6842 20.0079 21.3974 20.4718 20.9349 20.935C20.4717 21.3975 20.0057 21.6835 19.4586 21.896C18.9273 22.1016 18.3224 22.2419 17.4357 22.2835C17.2134 22.2935 17.0291 22.3015 16.8422 22.308L16.6805 22.3133C16.2698 22.3255 15.7946 22.331 14.8567 22.3329L14.2353 22.3335C14.1594 22.3335 14.0811 22.3335 14.0002 22.3335H13.7652L13.1437 22.333C12.2059 22.3315 11.7306 22.3265 11.32 22.3142L11.1582 22.309C10.9714 22.3023 10.787 22.294 10.5648 22.2835C9.67801 22.2426 9.07384 22.1016 8.5419 21.896C7.99328 21.6843 7.5287 21.3975 7.06551 20.935C6.60231 20.4718 6.3169 20.0058 6.1044 19.4585C5.89815 18.9273 5.75856 18.3225 5.7169 17.4356C5.707 17.2135 5.69892 17.0291 5.69238 16.8422L5.68714 16.6805C5.67495 16.2699 5.66939 15.7945 5.66759 14.8567L5.66748 13.1438C5.66903 12.2059 5.67399 11.7306 5.68621 11.32L5.69151 11.1582C5.69815 10.9714 5.70648 10.787 5.7169 10.5648C5.75786 9.67731 5.89815 9.07315 6.1044 8.5419C6.3162 7.99329 6.60231 7.52871 7.06551 7.06551C7.5287 6.60231 7.99398 6.3169 8.5419 6.1044C9.07315 5.89815 9.67731 5.75856 10.5648 5.7169C10.787 5.70701 10.9714 5.69893 11.1582 5.69239L11.32 5.68715C11.7306 5.67495 12.2059 5.66939 13.1437 5.66759L14.8567 5.66748ZM14.0002 9.83356C11.6978 9.83356 9.83356 11.6998 9.83356 14.0002C9.83356 16.3026 11.6998 18.1669 14.0002 18.1669C16.3027 18.1669 18.1669 16.3006 18.1669 14.0002C18.1669 11.6978 16.3006 9.83356 14.0002 9.83356ZM14.0002 11.5002C15.381 11.5002 16.5002 12.6191 16.5002 14.0002C16.5002 15.381 15.3813 16.5002 14.0002 16.5002C12.6195 16.5002 11.5002 15.3814 11.5002 14.0002C11.5002 12.6195 12.6191 11.5002 14.0002 11.5002ZM18.3752 8.58356C17.8008 8.58356 17.3336 9.05016 17.3336 9.62452C17.3336 10.1989 17.8002 10.6662 18.3752 10.6662C18.9496 10.6662 19.4169 10.1996 19.4169 9.62452C19.4169 9.05016 18.9488 8.58285 18.3752 8.58356Z" fill="#171717"/>
</svg>
