<svg width="28" height="28" viewBox="0 0 28 28" fill="none" xmlns="http://www.w3.org/2000/svg">
<rect width="28" height="28" rx="2" fill="#FACC15"/>
<path d="M9.78374 8.16645C9.78343 8.84504 9.37174 9.45569 8.74279 9.71045C8.11384 9.96521 7.39323 9.81321 6.92075 9.32613C6.44828 8.83904 6.3183 8.11413 6.59209 7.49323C6.86589 6.87233 7.48879 6.47942 8.16707 6.49978C9.06796 6.52682 9.78415 7.26515 9.78374 8.16645ZM9.83374 11.0664H6.5004V21.4998H9.83374V11.0664ZM15.1004 11.0664H11.7837V21.4998H15.0671V16.0248C15.0671 12.9748 19.0421 12.6914 19.0421 16.0248V21.4998H22.3338V14.8914C22.3338 9.74978 16.4504 9.94145 15.0671 12.4664L15.1004 11.0664Z" fill="#171717"/>
</svg>
